HIERARCHY
ROOT Hips
{
	OFFSET 0.000000 0.000000 0.000000
	CHANNELS 6 Xposition Yposition Zposition Zrotation Yrotation Xrotation 
	JOINT LHipJoint
	{
		OFFSET 0.000000 0.000000 0.000000
		CHANNELS 3 Zrotation Yrotation Xrotation
		JOINT LeftUpLeg
		{
			OFFSET 1.363060 -1.794630 0.839290
			CHANNELS 3 Zrotation Yrotation Xrotation
			JOINT LeftLeg
			{
				OFFSET 2.448110 -6.726130 0.000000
				CHANNELS 3 Zrotation Yrotation Xrotation
				JOINT LeftFoot
				{
					OFFSET 2.562200 -7.039590 0.000000
					CHANNELS 3 Zrotation Yrotation Xrotation
					JOINT LeftToeBase
					{
						OFFSET 0.157640 -0.433110 2.322550
						CHANNELS 3 Zrotation Yrotation Xrotation
						End Site
						{
							OFFSET 0.000000 0.000000 0.000000
						}
					}
				}
			}
		}
	}
	JOINT RHipJoint
	{
		OFFSET 0.000000 0.000000 0.000000
		CHANNELS 3 Zrotation Yrotation Xrotation
		JOINT RightUpLeg
		{
			OFFSET -1.305520 -1.794630 0.839290
			CHANNELS 3 Zrotation Yrotation Xrotation
			JOINT RightLeg
			{
				OFFSET -2.542530 -6.985550 0.000000
				CHANNELS 3 Zrotation Yrotation Xrotation
				JOINT RightFoot
				{
					OFFSET -2.568260 -7.056230 0.000000
					CHANNELS 3 Zrotation Yrotation Xrotation
					JOINT RightToeBase
					{
						OFFSET -0.164730 -0.452590 2.363150
						CHANNELS 3 Zrotation Yrotation Xrotation
						End Site
						{
							OFFSET 0.000000 0.000000 0.000000
						}
					}
				}
			}
		}
	}
	JOINT LowerBack
	{
		OFFSET 0.000000 0.000000 0.000000
		CHANNELS 3 Zrotation Yrotation Xrotation
		JOINT Spine
		{
			OFFSET 0.028270 2.035590 -0.193380
			CHANNELS 3 Zrotation Yrotation Xrotation
			JOINT Spine1
			{
				OFFSET 0.056720 2.048850 -0.042750
				CHANNELS 3 Zrotation Yrotation Xrotation
				JOINT Neck
				{
					OFFSET 0.000000 0.000000 0.000000
					CHANNELS 3 Zrotation Yrotation Xrotation
					JOINT Neck1
					{
						OFFSET -0.054170 1.746240 0.172020
						CHANNELS 3 Zrotation Yrotation Xrotation
						JOINT Head
						{
							OFFSET 0.104070 1.761360 -0.123970
							CHANNELS 3 Zrotation Yrotation Xrotation
							End Site
							{
								OFFSET 0.000000 0.000000 0.000000
							}
						}
					}
				}
				JOINT LeftShoulder
				{
					OFFSET 0.000000 0.000000 0.000000
					CHANNELS 3 Zrotation Yrotation Xrotation
					JOINT LeftArm
					{
						OFFSET 3.362410 1.200890 -0.311210
						CHANNELS 3 Zrotation Yrotation Xrotation
						JOINT LeftForeArm
						{
							OFFSET 4.983000 -0.000000 -0.000000
							CHANNELS 3 Zrotation Yrotation Xrotation
							JOINT LeftHand
							{
								OFFSET 3.483560 -0.000000 -0.000000
								CHANNELS 3 Zrotation Yrotation Xrotation
								JOINT LeftFingerBase
								{
									OFFSET 0.000000 0.000000 0.000000
									CHANNELS 3 Zrotation Yrotation Xrotation
									JOINT LeftHandIndex1
									{
										OFFSET 0.715260 -0.000000 -0.000000
										CHANNELS 3 Zrotation Yrotation Xrotation
										End Site
										{
											OFFSET 0.000000 0.000000 0.000000
										}
									}
								}
								JOINT LThumb
								{
									OFFSET 0.000000 0.000000 0.000000
									CHANNELS 3 Zrotation Yrotation Xrotation
									End Site
									{
										OFFSET 0.000000 0.000000 0.000000
									}
								}
							}
						}
					}
				}
				JOINT RightShoulder
				{
					OFFSET 0.000000 0.000000 0.000000
					CHANNELS 3 Zrotation Yrotation Xrotation
					JOINT RightArm
					{
						OFFSET -3.136600 1.374050 -0.404650
						CHANNELS 3 Zrotation Yrotation Xrotation
						JOINT RightForeArm
						{
							OFFSET -5.241900 -0.000000 -0.000000
							CHANNELS 3 Zrotation Yrotation Xrotation
							JOINT RightHand
							{
								OFFSET -3.444170 -0.000000 -0.000000
								CHANNELS 3 Zrotation Yrotation Xrotation
								JOINT RightFingerBase
								{
									OFFSET 0.000000 0.000000 0.000000
									CHANNELS 3 Zrotation Yrotation Xrotation
									JOINT RightHandIndex1
									{
										OFFSET -0.622530 -0.000000 -0.000000
										CHANNELS 3 Zrotation Yrotation Xrotation
										End Site
										{
											OFFSET 0.000000 0.000000 0.000000
										}
									}
								}
								JOINT RThumb
								{
									OFFSET 0.000000 0.000000 0.000000
									CHANNELS 3 Zrotation Yrotation Xrotation
									End Site
									{
										OFFSET 0.000000 0.000000 0.000000
									}
								}
							}
						}
					}
				}
			}
		}
	}
}
MOTION
Frames: 6
Frame Time: 0.008333
1.144537 17.383727 0.832354 -173.655389 -33.842600 -174.149498 -12.380468 3.758314 -1.965886 -1.346748 38.298050 -9.577640 -2.184993 -0.278436 6.190114 3.486556 26.957104 2.481586 5.047100 0.000000 -45.675400 8.457724 -1.325424 8.091211 5.245545 16.687757 -19.422303 4.400649 1.153553 0.187229 2.780405 27.806948 14.915910 9.359500 -0.000000 -80.410800 1.214516 -5.875012 -10.021143 -0.260239 -6.190085 -4.784294 -7.269328 -6.045140 -1.454554 16.240004 -13.482102 -2.692248 -1.705990 -0.209883 1.443660 0.000000 0.000000 0.000000 13.593408 -9.976501 5.030048 -19.530149 1.003677 -29.805841 -0.759359 -46.102829 -0.112482 13.462652 -2.790112 -0.398641 -0.225618 0.540173 0.000000 0.000000 0.000000 0.000000 0.000000 0.000000 0.000000 9.131221 -10.067454 -6.841885 92.350746 52.276139 43.268921 -178.542491 65.895378 179.768292 -20.653931 10.014359 -2.041957 0.474847 -0.920149 -0.000000 0.000000 0.000000 0.000000 0.000000 0.000000 0.000000 
1.150119 17.379241 0.851991 -173.567165 -33.870521 -174.217745 -12.303325 3.752073 -2.070374 -1.419824 38.287032 -9.532617 -2.188617 -0.268673 6.108263 3.537139 27.190322 2.208408 4.976300 0.000001 -45.100300 8.526462 -1.248748 8.034089 5.154407 16.936496 -19.269010 4.381998 1.160192 0.119283 2.764562 27.232774 14.825691 9.096300 -0.000000 -80.274100 0.946114 -6.080281 -9.792620 -0.270245 -6.353505 -4.682815 -7.156626 -6.212670 -1.331023 16.816028 -14.005161 -2.856054 -1.547888 -0.197224 1.399518 0.000000 0.000000 0.000000 15.214382 -10.904629 5.054336 -16.372575 -1.327390 -32.780595 -0.825468 -36.744041 -0.111950 13.174267 -3.090242 -0.428229 -0.243686 0.555797 -0.000000 0.000000 0.000000 0.000000 0.000000 0.000000 0.000000 9.394957 -11.097770 -6.859234 91.761371 52.200539 42.011135 -178.381906 65.731312 179.768281 -20.647189 9.757716 -1.988101 0.454694 -0.902403 -0.000000 0.000000 0.000000 0.000000 0.000000 0.000000 0.000000 
1.154282 17.376576 0.871018 -173.429124 -33.952900 -174.257862 -12.220642 3.738748 -2.182816 -1.480742 38.249681 -9.513095 -2.197049 -0.259034 5.970931 3.577601 27.345444 1.965382 4.900800 0.000000 -44.519500 8.598835 -1.162951 7.977120 5.058129 17.259150 -19.188369 4.358461 1.158439 0.110128 2.745991 26.545818 14.756043 8.805000 -0.000000 -80.033600 0.650733 -6.306432 -9.537063 -0.282294 -6.537368 -4.592708 -7.037906 -6.405651 -1.267061 17.449501 -14.520419 -3.027876 -1.387867 -0.184349 1.353859 0.000000 0.000000 0.000000 16.853338 -11.846632 5.043438 -13.238226 -3.229413 -36.105039 -0.876391 -27.733497 -0.106610 12.587401 -3.409280 -0.447492 -0.264493 0.565602 -0.000000 0.000000 0.000000 0.000000 0.000000 0.000000 0.000000 9.727786 -12.092597 -6.856182 91.195380 52.123238 40.828318 -178.226880 65.560630 179.768423 -20.632424 9.510287 -1.935713 0.435653 -0.886036 -0.000000 0.000000 0.000000 0.000000 0.000000 0.000000 0.000000 
1.156638 17.376280 0.888688 -173.258533 -34.080428 -174.259285 -12.135789 3.722439 -2.296625 -1.543598 38.191056 -9.519509 -2.210255 -0.251330 5.763667 3.606421 27.423616 1.778195 4.834400 0.000001 -43.961300 8.672779 -1.072180 7.923578 4.951908 17.631611 -19.188678 4.329774 1.149072 0.156260 2.724980 25.786367 14.712076 8.502899 0.000000 -79.700300 0.339086 -6.546307 -9.270780 -0.299112 -6.736783 -4.517529 -6.931389 -6.618935 -1.257529 18.120323 -15.021610 -3.201547 -1.235400 -0.171939 1.308810 0.000000 0.000000 0.000000 18.489913 -12.784599 4.986377 -10.158900 -4.616470 -39.743298 -0.914831 -19.455679 -0.096424 11.730327 -3.761449 -0.455604 -0.282805 0.567215 -0.000000 0.000000 0.000000 0.000000 0.000000 0.000000 0.000000 10.141616 -13.045048 -6.829182 90.636411 52.058925 39.739954 -178.082532 65.385314 179.768766 -20.609235 9.273478 -1.885090 0.418328 -0.871154 -0.000000 0.000000 0.000000 0.000000 0.000000 0.000000 0.000000 
1.156702 17.378692 0.904548 -173.075073 -34.243604 -174.218882 -12.054895 3.707864 -2.404112 -1.621649 38.123090 -9.548910 -2.228115 -0.247416 5.475415 3.622247 27.426744 1.665600 4.787300 0.000000 -43.437600 8.743823 -0.982109 7.877691 4.831337 18.025670 -19.268169 4.296507 1.133683 0.248711 2.702200 24.996378 14.697564 8.205800 0.000001 -79.287700 0.032525 -6.791335 -9.013591 -0.320610 -6.946384 -4.458230 -6.853647 -6.845813 -1.287626 18.789247 -15.500183 -3.370413 -1.100209 -0.160698 1.266447 0.000000 0.000000 0.000000 20.128707 -13.696984 4.880736 -7.252416 -5.437965 -43.565495 -0.935987 -12.258361 -0.083329 10.729888 -4.094135 -0.449546 -0.294292 0.559787 -0.000000 0.000000 0.000000 0.000000 0.000000 0.000000 0.000000 10.621079 -13.943459 -6.782228 90.093374 52.011365 38.772694 -177.953132 65.208967 179.769351 -20.575586 9.051469 -1.836934 0.403145 -0.857894 -0.000000 0.000000 0.000000 0.000000 0.000000 0.000000 0.000000 
1.154261 17.383882 0.918284 -172.903982 -34.431737 -174.137234 -11.986390 3.700496 -2.497486 -1.724075 38.060975 -9.593129 -2.250119 -0.248707 5.100143 3.624312 27.361130 1.643794 4.768899 0.000000 -42.991400 8.805762 -0.899331 7.844062 4.691990 18.415277 -19.413040 4.259933 1.114711 0.372666 2.678699 24.212244 14.714958 7.926101 -0.000000 -78.806400 -0.237975 -7.033975 -8.786050 -0.342284 -7.161538 -4.412698 -6.811632 -7.079390 -1.332474 19.398578 -15.943268 -3.529912 -0.989399 -0.151147 1.228009 0.000000 0.000000 0.000000 21.750103 -14.533432 4.741899 -4.642856 -5.727229 -47.230003 -0.943124 -6.371540 -0.070259 9.768192 -4.302677 -0.427504 -0.298999 0.543664 -0.000000 0.000000 0.000000 0.000000 0.000000 0.000000 0.000000 11.118313 -14.770629 -6.729937 89.615872 51.971364 37.972148 -177.840487 65.043893 179.770233 -20.525037 8.856391 -1.793051 0.390023 -0.846426 -0.000000 0.000000 0.000000 0.000000 0.000000 0.000000 0.000000 
